# xmcd CD database file generated by OrangeCD 5.2
#
# Track frame offsets:
#	150
#	17575
#	34422
#	52510
#	70875
#	93515
#	113972
#	140302
#	158980
#	176147
#	191707
#	211877
#
# Disc length: 2969 seconds
#
# Revision: 2
# Processed by: cddbd v1.5.1PL0 Copyright (c) Steve Scherf et al.
# Submitted via: OrangeCD 5.2
#
DISCID=a30b970c
DTITLE=Downchild Blues Band - Lucky 13
DYEAR=1998
DGENRE=Blues
TTITLE0=Dew Drop Inn
TTITLE1=Shoot The Moon
TTITLE2=All Over
TTITLE3=Last Chance To Dance
TTITLE4=When The Morning Comes
TTITLE5=Take Me Back Annie
TTITLE6=Soaring
TTITLE7=I Know You're Lyin'
TTITLE8=My First Letter
TTITLE9=Changed My Ways
TTITLE10=Screamin'
TTITLE11=Lucky 13
EXTD=
EXTT0=
EXTT1=
EXTT2=
EXTT3=
EXTT4=
EXTT5=
EXTT6=
EXTT7=
EXTT8=
EXTT9=
EXTT10=
EXTT11=
PLAYORDER=
